<svg width="32" height="33" viewBox="0 0 32 33" fill="none" xmlns="http://www.w3.org/2000/svg">
<g clip-path="url(#clip0_48_20)">
<path d="M32 16.9453C32 8.10875 24.8366 0.945312 16 0.945312C7.16344 0.945312 0 8.10875 0 16.9453C0 24.9313 5.85094 31.5506 13.5 32.7509V21.5703H9.4375V16.9453H13.5V13.4203C13.5 9.41031 15.8888 7.19531 19.5434 7.19531C21.2934 7.19531 23.125 7.50781 23.125 7.50781V11.4453H21.1075C19.12 11.4453 18.5 12.6788 18.5 13.9453V16.9453H22.9375L22.2281 21.5703H18.5V32.7509C26.1491 31.5506 32 24.9313 32 16.9453Z" fill="#44686F"/>
</g>
<defs>
<clipPath id="clip0_48_20">
<rect width="32" height="32" fill="white" transform="translate(0 0.945312)"/>
</clipPath>
</defs>
</svg>
