<svg width="32" height="33" viewBox="0 0 32 33" fill="none" xmlns="http://www.w3.org/2000/svg">
<g clip-path="url(#clip0_48_15)">
<path d="M16 3.82656C20.275 3.82656 20.7813 3.84531 22.4625 3.92031C24.025 3.98906 24.8688 4.25156 25.4313 4.47031C26.175 4.75781 26.7125 5.10781 27.2688 5.66406C27.8313 6.22656 28.175 6.75781 28.4625 7.50156C28.6813 8.06406 28.9438 8.91406 29.0125 10.4703C29.0875 12.1578 29.1063 12.6641 29.1063 16.9328C29.1063 21.2078 29.0875 21.7141 29.0125 23.3953C28.9438 24.9578 28.6813 25.8016 28.4625 26.3641C28.175 27.1078 27.825 27.6453 27.2688 28.2016C26.7063 28.7641 26.175 29.1078 25.4313 29.3953C24.8688 29.6141 24.0188 29.8766 22.4625 29.9453C20.775 30.0203 20.2688 30.0391 16 30.0391C11.725 30.0391 11.2188 30.0203 9.5375 29.9453C7.975 29.8766 7.13125 29.6141 6.56875 29.3953C5.825 29.1078 5.2875 28.7578 4.73125 28.2016C4.16875 27.6391 3.825 27.1078 3.5375 26.3641C3.31875 25.8016 3.05625 24.9516 2.9875 23.3953C2.9125 21.7078 2.89375 21.2016 2.89375 16.9328C2.89375 12.6578 2.9125 12.1516 2.9875 10.4703C3.05625 8.90781 3.31875 8.06406 3.5375 7.50156C3.825 6.75781 4.175 6.22031 4.73125 5.66406C5.29375 5.10156 5.825 4.75781 6.56875 4.47031C7.13125 4.25156 7.98125 3.98906 9.5375 3.92031C11.2188 3.84531 11.725 3.82656 16 3.82656ZM16 0.945312C11.6563 0.945312 11.1125 0.964062 9.40625 1.03906C7.70625 1.11406 6.5375 1.38906 5.525 1.78281C4.46875 2.19531 3.575 2.73906 2.6875 3.63281C1.79375 4.52031 1.25 5.41406 0.8375 6.46406C0.44375 7.48281 0.16875 8.64531 0.09375 10.3453C0.01875 12.0578 0 12.6016 0 16.9453C0 21.2891 0.01875 21.8328 0.09375 23.5391C0.16875 25.2391 0.44375 26.4078 0.8375 27.4203C1.25 28.4766 1.79375 29.3703 2.6875 30.2578C3.575 31.1453 4.46875 31.6953 5.51875 32.1016C6.5375 32.4953 7.7 32.7703 9.4 32.8453C11.1063 32.9203 11.65 32.9391 15.9938 32.9391C20.3375 32.9391 20.8813 32.9203 22.5875 32.8453C24.2875 32.7703 25.4563 32.4953 26.4688 32.1016C27.5188 31.6953 28.4125 31.1453 29.3 30.2578C30.1875 29.3703 30.7375 28.4766 31.1438 27.4266C31.5375 26.4078 31.8125 25.2453 31.8875 23.5453C31.9625 21.8391 31.9813 21.2953 31.9813 16.9516C31.9813 12.6078 31.9625 12.0641 31.8875 10.3578C31.8125 8.65781 31.5375 7.48906 31.1438 6.47656C30.75 5.41406 30.2063 4.52031 29.3125 3.63281C28.425 2.74531 27.5313 2.19531 26.4813 1.78906C25.4625 1.39531 24.3 1.12031 22.6 1.04531C20.8875 0.964063 20.3438 0.945312 16 0.945312Z" fill="#44686F"/>
<path d="M16 8.72656C11.4625 8.72656 7.78125 12.4078 7.78125 16.9453C7.78125 21.4828 11.4625 25.1641 16 25.1641C20.5375 25.1641 24.2188 21.4828 24.2188 16.9453C24.2188 12.4078 20.5375 8.72656 16 8.72656ZM16 22.2766C13.0563 22.2766 10.6687 19.8891 10.6687 16.9453C10.6687 14.0016 13.0563 11.6141 16 11.6141C18.9438 11.6141 21.3312 14.0016 21.3312 16.9453C21.3312 19.8891 18.9438 22.2766 16 22.2766Z" fill="#44686F"/>
<path d="M26.4625 8.40154C26.4625 9.46404 25.6 10.3203 24.5438 10.3203C23.4813 10.3203 22.625 9.45779 22.625 8.40154C22.625 7.33904 23.4875 6.48279 24.5438 6.48279C25.6 6.48279 26.4625 7.34529 26.4625 8.40154Z" fill="#44686F"/>
</g>
<defs>
<clipPath id="clip0_48_15">
<rect width="32" height="32" fill="white" transform="translate(0 0.945312)"/>
</clipPath>
</defs>
</svg>
