<svg width="32" height="33" viewBox="0 0 32 33" fill="none" xmlns="http://www.w3.org/2000/svg">
<g clip-path="url(#clip0_48_22)">
<path d="M22.7634 0.945312H17.3704V22.7424C17.3704 25.3395 15.2963 27.4729 12.715 27.4729C10.1338 27.4729 8.05959 25.3395 8.05959 22.7424C8.05959 20.1917 10.0877 18.1047 12.5768 18.012V12.5395C7.09163 12.6322 2.66667 17.1308 2.66667 22.7424C2.66667 28.4004 7.18381 32.9453 12.7611 32.9453C18.3384 32.9453 22.8555 28.354 22.8555 22.7424V11.5656C24.8836 13.0497 27.3727 13.9308 30 13.9772V8.50473C25.9438 8.36561 22.7634 5.02647 22.7634 0.945312Z" fill="#44686F"/>
</g>
<defs>
<clipPath id="clip0_48_22">
<rect width="32" height="32" fill="white" transform="translate(0 0.945312)"/>
</clipPath>
</defs>
</svg>
