<svg width="32" height="33" viewBox="0 0 32 33" fill="none" xmlns="http://www.w3.org/2000/svg">
<path d="M31.6812 10.5453C31.6812 10.5453 31.3688 8.33909 30.4063 7.37034C29.1875 6.09534 27.825 6.08909 27.2 6.01409C22.725 5.68909 16.0063 5.68909 16.0063 5.68909H15.9937C15.9937 5.68909 9.275 5.68909 4.8 6.01409C4.175 6.08909 2.8125 6.09534 1.59375 7.37034C0.63125 8.33909 0.325 10.5453 0.325 10.5453C0.325 10.5453 0 13.1391 0 15.7266V18.1516C0 20.7391 0.31875 23.3328 0.31875 23.3328C0.31875 23.3328 0.63125 25.5391 1.5875 26.5078C2.80625 27.7828 4.40625 27.7391 5.11875 27.8766C7.68125 28.1203 16 28.1953 16 28.1953C16 28.1953 22.725 28.1828 27.2 27.8641C27.825 27.7891 29.1875 27.7828 30.4063 26.5078C31.3688 25.5391 31.6812 23.3328 31.6812 23.3328C31.6812 23.3328 32 20.7453 32 18.1516V15.7266C32 13.1391 31.6812 10.5453 31.6812 10.5453ZM12.6938 21.0953V12.1016L21.3375 16.6141L12.6938 21.0953Z" fill="#44686F"/>
</svg>
